<svg width="23" height="24" viewBox="0 0 23 24" fill="none" xmlns="http://www.w3.org/2000/svg">
<path d="M11.5 0C14.55 0 17.4751 1.26428 19.6317 3.51472C21.7884 5.76515 23 8.8174 23 12C23 15.1826 21.7884 18.2348 19.6317 20.4853C17.4751 22.7357 14.55 24 11.5 24C8.45001 24 5.52494 22.7357 3.36827 20.4853C1.2116 18.2348 0 15.1826 0 12C0 8.8174 1.2116 5.76515 3.36827 3.51472C5.52494 1.26428 8.45001 0 11.5 0ZM11.5 1.26316C8.77106 1.26316 6.15389 2.39436 4.22424 4.40791C2.29459 6.42145 1.21053 9.15241 1.21053 12C1.21053 14.8476 2.29459 17.5785 4.22424 19.5921C6.15389 21.6056 8.77106 22.7368 11.5 22.7368C12.8512 22.7368 14.1892 22.4591 15.4376 21.9195C16.686 21.38 17.8203 20.5891 18.7758 19.5921C19.7312 18.5951 20.4891 17.4115 21.0062 16.1088C21.5233 14.8062 21.7895 13.41 21.7895 12C21.7895 9.15241 20.7054 6.42145 18.7758 4.40791C16.8461 2.39436 14.2289 1.26316 11.5 1.26316ZM10.8947 5.05263H12.1053V11.8989L17.7947 15.3221L17.1895 16.4211L10.8947 12.6316V5.05263Z" fill="black"/>
</svg>
